<?xml version="1.0" encoding="utf-8"?>
<!-- Generator: Adobe Illustrator 16.0.0, SVG Export Plug-In . SVG Version: 6.00 Build 0)  -->
<!DOCTYPE svg PUBLIC "-//W3C//DTD SVG 1.1//EN" "http://www.w3.org/Graphics/SVG/1.1/DTD/svg11.dtd">
<svg version="1.1" id="Layer_1" xmlns="http://www.w3.org/2000/svg" xmlns:xlink="http://www.w3.org/1999/xlink" x="0px" y="0px"
	 width="576.5px" height="100px" viewBox="0 0 576.5 100" enable-background="new 0 0 576.5 100" xml:space="preserve">
<g>
	<path fill-rule="evenodd" clip-rule="evenodd" d="M0.455,3.554C8.891,3.518,17.33,3.312,25.76,3.491
		c10.838,0.229,17.577,6.353,18.7,17.145c0.473,4.548,0.552,9.26-0.084,13.771c-1.203,8.53-6.609,13.685-15.105,16.105
		c9.602,1.905,13.813,8.398,15.078,16.99c1.401,9.521,1.396,18.991-7.349,25.591c-2.458,1.855-5.568,3.792-8.469,3.942
		c-9.335,0.482-18.713,0.148-28.075,0.129c0-2.865,0-5.731,0-8.597c1.523-0.267,3.043-0.739,4.571-0.764
		c5.558-0.093,11.12,0.013,16.68-0.05c7.784-0.089,12.11-4.373,12.213-12.021c0.039-2.859,0.041-5.719-0.001-8.579
		c-0.121-8.261-3.399-11.509-11.594-11.623c-7.29-0.102-14.579-0.261-21.869-0.396c0-3.184,0-6.369,0-9.552
		c6.995,0.002,13.99,0.035,20.984,0c8.181-0.04,12.389-4.187,12.482-12.237c0.027-2.385,0.02-4.771,0.003-7.157
		c-0.059-8.541-4.291-12.697-12.975-12.797c-6.832-0.079-13.663-0.191-20.495-0.288C0.455,9.922,0.455,6.737,0.455,3.554z"/>
	<path fill-rule="evenodd" clip-rule="evenodd" d="M406.142,23.89c-1.995,0-4.114,0.364-6.018-0.117
		c-1.493-0.378-3.368-1.507-3.959-2.809c-3.197-7.036-9.06-9.476-15.852-6.228c-5.395,2.58-7.321,9.789-3.25,15.613
		c3.789,5.421,8.419,10.326,13.109,15.029c7.146,7.166,13.974,14.401,15.881,24.857c1.647,9.036,0.466,17.303-7.47,23.075
		c-7.929,5.768-16.805,5.712-25.389,1.975c-7.337-3.194-8.835-10.183-9.285-17.765c3.32,0,6.42,0,9.5,0
		c1.351,6.711,3.682,9.38,9.006,10.037c4.063,0.501,8.16,0.418,10.669-3.52c2.913-4.571,3.784-9.951,1.004-14.463
		c-3.538-5.744-8.203-10.826-12.631-15.98c-3.619-4.215-7.792-7.956-11.384-12.191c-8.36-9.856-8.266-24.68,0.167-32.015
		c7.4-6.438,15.925-7.612,24.98-4.259C402.326,7.762,406.527,15.078,406.142,23.89z"/>
	<path fill-rule="evenodd" clip-rule="evenodd" d="M90.449,55.623c-7.154,0-13.919,0-20.922,0c0-3.498,0-6.439,0-9.915
		c6.845,0,13.597,0,20.755,0c0-8.252,0.308-15.999-0.112-23.707c-0.268-4.916-5.315-8.592-10.465-8.585
		c-5.353,0.007-10.096,3.923-10.729,8.997c-0.194,1.555-0.031,3.156-0.031,5.195c-3.764,0-7.281,0-10.781,0
		C56.347,14.992,63.782,5.208,76.271,3.585c13.195-1.716,24.992,6.264,25.273,18.535c0.572,24.946,0.17,49.915,0.17,75.208
		c-3.767,0-7.315,0-11.266,0C90.449,83.427,90.449,69.803,90.449,55.623z"/>
	<path fill-rule="evenodd" clip-rule="evenodd" d="M121.401,3.631c3.858,0,7.158,0,11.087,0c0,1.862,0,3.543,0,5.224
		c0.001,22.577-0.03,45.153,0.026,67.729c0.014,5.547,3.77,10.106,8.713,10.988c5.237,0.935,10.414-1.822,12.146-6.944
		c0.732-2.168,0.627-4.663,0.662-7.013c0.085-5.677,0.028-11.357,0.028-17.271c3.899,0,7.303,0,10.645,0
		c0,8.785,0.745,17.407-0.198,25.84c-1.051,9.4-10.723,15.527-22.234,15.472c-10.113-0.048-18.662-6.89-20.539-16.521
		c-0.333-1.705-0.521-3.467-0.524-5.204c-0.033-23.053-0.022-46.107-0.011-69.16C121.2,5.842,121.315,4.913,121.401,3.631z"/>
	<path fill-rule="evenodd" clip-rule="evenodd" d="M532.628,13.399c0-3.578,0-6.402,0-9.078c10.031,0,20.051-0.893,29.826,0.272
		c8.341,0.994,13.109,9.258,14.019,20.358c1.127,13.768-2.213,18.947-16.681,25.334c2.955,0.688,5.591,1.086,8.077,1.923
		c6.156,2.07,8.639,5.593,8.665,12.112c0.045,10.94,0.013,21.881,0.013,33.079c-3.867,0-7.285,0-11.237,0
		c0-9.583,0.011-18.916-0.003-28.249c-0.014-9.784-3.797-13.603-13.468-13.616c-6.2-0.007-12.399-0.001-18.979-0.001
		c0-3.213,0-6.269,0-9.944c6.627,0,13.255,0.022,19.883-0.006c8.479-0.035,12.483-4.054,12.565-12.552
		c0.175-17.849-1.591-19.633-19.431-19.633C541.61,13.399,537.344,13.399,532.628,13.399z"/>
	<path fill-rule="evenodd" clip-rule="evenodd" d="M181.789,4.215c6.186-1.647,9.201-0.218,11.941,3.795
		c7.79,11.41,16.048,22.498,24.133,33.706c0.811,1.125,1.693,2.199,2.816,3.649c9.12-12.544,18.18-24.577,26.706-36.977
		c2.831-4.116,5.738-6.003,10.891-4.496c0.742,3.248,0.615,6.247-1.772,9.423c-12.097,16.094-23.963,32.363-36.236,49.012
		c-4.782-6.585-9.354-12.816-13.858-19.097c-6.941-9.679-13.985-19.29-20.655-29.154C183.881,11.307,183.168,7.754,181.789,4.215z"
		/>
	<path fill-rule="evenodd" clip-rule="evenodd" d="M335.813,3.68c3.553,0,6.819,0,10.421,0c0,31.305,0,62.373,0,93.712
		c-3.495,0-6.769,0-10.421,0C335.813,66.24,335.813,35.187,335.813,3.68z"/>
	<path fill-rule="evenodd" clip-rule="evenodd" d="M436.183,13.539c-5.627,0-10.669,0-16.075,0c0-3.41,0-6.467,0-9.817
		c14.399,0,28.774,0,43.452,0c0,3.041,0,5.979,0,9.527c-5.089,0-10.227,0-15.932,0c0,14.307,0,28.023,0,41.971
		c-4.004,0-7.427,0-11.445,0C436.183,41.335,436.183,27.611,436.183,13.539z"/>
	<path fill-rule="evenodd" clip-rule="evenodd" d="M518.755,97.416c-13.997,0-27.917,0-42.119,0c0-3.119,0-6.044,0-9.317
		c13.939,0,27.837,0,42.119,0C518.755,91.081,518.755,94.121,518.755,97.416z"/>
	<path fill-rule="evenodd" clip-rule="evenodd" d="M274.416,97.275c0-3.07,0-6.021,0-9.241c14.032,0,27.893,0,42.099,0
		c0,3.008,0,5.923,0,9.241C302.572,97.275,288.598,97.275,274.416,97.275z"/>
	<path fill-rule="evenodd" clip-rule="evenodd" d="M476.563,45.796c14.356,0,28.159,0,42.256,0c0,3.139,0,6.086,0,9.388
		c-13.965,0-28.01,0-42.256,0C476.563,52.065,476.563,49.126,476.563,45.796z"/>
	<path fill-rule="evenodd" clip-rule="evenodd" d="M518.859,13.108c-14.227,0-28.151,0-42.288,0c0-3.108,0-5.931,0-9.211
		c13.941,0,27.974,0,42.288,0C518.859,6.773,518.859,9.717,518.859,13.108z"/>
	<path fill-rule="evenodd" clip-rule="evenodd" d="M316.513,55.314c-14.07,0-27.958,0-42.073,0c0-3.174,0-6.13,0-9.404
		c13.993,0,27.873,0,42.073,0C316.513,48.892,316.513,51.832,316.513,55.314z"/>
	<path fill-rule="evenodd" clip-rule="evenodd" d="M274.307,13.119c0-3.302,0-6.153,0-9.342c14.113,0,28.135,0,42.33,0
		c0,3.182,0,6.122,0,9.342C302.517,13.119,288.616,13.119,274.307,13.119z"/>
	<path fill-rule="evenodd" clip-rule="evenodd" fill="#4A4A4A" d="M68.386,87.116c0,3.248,0,6.49,0,9.999c-3.466,0-6.718,0-10.254,0
		c0-3.329,0-6.451,0-9.999C61.392,87.116,64.749,87.116,68.386,87.116z"/>
	<path fill-rule="evenodd" clip-rule="evenodd" fill="#E30613" d="M68.552,86.949c0,3.248,0,6.49,0,9.999c-3.466,0-6.718,0-10.254,0
		c0-3.329,0-6.451,0-9.999C61.558,86.949,64.916,86.949,68.552,86.949z"/>
	<path fill-rule="evenodd" clip-rule="evenodd" fill="#E30613" d="M164.386,3.574c0,3.248,0,6.49,0,9.999c-3.466,0-6.718,0-10.254,0
		c0-3.329,0-6.451,0-9.999C157.392,3.574,160.749,3.574,164.386,3.574z"/>
	<path fill-rule="evenodd" clip-rule="evenodd" fill="#E30613" d="M193.219,87.616c0,3.248,0,6.49,0,9.999
		c-3.466,0-6.718,0-10.254,0c0-3.329,0-6.451,0-9.999C186.225,87.616,189.583,87.616,193.219,87.616z"/>
	<path fill-rule="evenodd" clip-rule="evenodd" fill="#E30613" d="M258.719,87.782c0,3.248,0,6.49,0,9.999
		c-3.466,0-6.718,0-10.254,0c0-3.329,0-6.451,0-9.999C251.725,87.782,255.083,87.782,258.719,87.782z"/>
	<path fill-rule="evenodd" clip-rule="evenodd" fill="#E30613" d="M446.969,87.782c0,3.248,0,6.49,0,9.999
		c-3.465,0-6.717,0-10.254,0c0-3.329,0-6.451,0-9.999C439.975,87.782,443.332,87.782,446.969,87.782z"/>
	<path fill-rule="evenodd" clip-rule="evenodd" fill="#E30613" d="M543.375,87.782c0,3.248,0,6.49,0,9.999
		c-3.465,0-6.717,0-10.254,0c0-3.329,0-6.451,0-9.999C536.381,87.782,539.738,87.782,543.375,87.782z"/>
	<path fill-rule="evenodd" clip-rule="evenodd" fill="#E30613" d="M543.156,87.782c0,3.248,0,6.49,0,9.999
		c-3.465,0-6.717,0-10.254,0c0-3.329,0-6.451,0-9.999C536.162,87.782,539.52,87.782,543.156,87.782z"/>
</g>
</svg>
