<?xml version="1.0" encoding="utf-8"?>
<!-- Generator: Adobe Illustrator 16.0.0, SVG Export Plug-In . SVG Version: 6.00 Build 0)  -->
<!DOCTYPE svg PUBLIC "-//W3C//DTD SVG 1.1//EN" "http://www.w3.org/Graphics/SVG/1.1/DTD/svg11.dtd">
<svg version="1.1"
	 id="svg10" xmlns:svg="http://www.w3.org/2000/svg" xmlns:rdf="http://www.w3.org/1999/02/22-rdf-syntax-ns#" xmlns:dc="http://purl.org/dc/elements/1.1/" xmlns:cc="http://creativecommons.org/ns#"
	 xmlns="http://www.w3.org/2000/svg" xmlns:xlink="http://www.w3.org/1999/xlink" x="0px" y="0px" width="595.279px" height="116px"
	 viewBox="0 361.445 595.279 116" enable-background="new 0 361.445 595.279 116" xml:space="preserve">
<path d="M51.159,365.684c5.067,0,9.749,0.386,14.044,1.544c4.296,0.772,7.819,2.365,10.956,4.295
	c3.138,1.931,5.454,4.682,7.047,8.205c1.544,3.523,2.364,7.819,2.364,12.5c0,5.453-1.158,10.135-3.909,13.658
	c-2.364,3.523-6.226,6.66-10.955,8.978c6.66,1.931,11.728,5.453,14.816,10.135s5.067,10.521,5.067,17.182
	c0,5.454-1.158,10.136-3.137,14.045c-1.931,3.909-5.067,7.433-8.591,9.749c-3.523,2.365-7.819,4.296-12.5,5.454
	c-4.682,1.158-9.363,1.931-14.045,1.931L0,473.456V365.684H51.159z M48.022,409.41c4.296,0,7.819-1.158,10.521-3.137
	c2.703-1.979,3.909-5.454,3.909-9.75c0-2.365-0.386-4.682-1.158-6.226c-0.771-1.544-1.931-2.751-3.522-3.909
	c-1.545-0.772-3.138-1.544-5.068-1.931s-3.909-0.386-6.226-0.386H23.842v25.386C23.842,409.41,48.022,409.41,48.022,409.41z
	 M49.18,455.502c2.365,0,4.682-0.387,6.661-0.772c1.931-0.386,3.909-1.158,5.453-2.365c1.545-1.206,2.751-2.364,3.909-4.295
	c0.772-1.931,1.545-4.296,1.545-7.047c0-5.453-1.545-9.363-4.682-12.114c-3.137-2.364-7.433-3.522-12.5-3.522H23.842v30.067H49.18
	V455.502z"/>
<path d="M124.568,455.115c3.138,3.138,7.818,4.682,14.045,4.682c4.295,0,8.204-1.158,11.342-3.137
	c3.137-2.365,5.067-4.682,5.84-7.047h19.112c-3.137,9.363-7.818,16.023-14.045,20.319c-6.226,3.909-13.658,6.226-22.636,6.226
	c-6.226,0-11.728-1.158-16.795-3.137c-5.068-1.931-8.978-4.682-12.501-8.591c-3.522-3.523-6.226-7.819-7.818-12.887
	c-1.931-5.067-2.751-10.521-2.751-16.796c0-5.84,0.772-11.342,2.751-16.409s4.682-9.363,8.205-13.272
	c3.523-3.523,7.818-6.66,12.5-8.591c5.067-1.931,10.136-3.137,16.409-3.137c6.661,0,12.501,1.158,17.568,3.91
	c5.067,2.751,8.977,5.84,12.114,10.521c3.137,4.295,5.453,9.362,7.046,14.816c0.772,5.454,1.158,10.956,0.772,17.182h-56.613
	C119.114,446.139,121.431,451.979,124.568,455.115z M149.182,414.092c-2.751-2.751-7.046-4.296-12.114-4.296
	c-3.522,0-6.226,0.772-8.591,1.931c-2.364,1.158-3.909,2.751-5.453,4.296c-1.545,1.544-2.365,3.523-2.751,5.453
	c-0.387,1.931-0.772,3.523-0.772,5.068h35.136C153.864,420.752,151.885,416.843,149.182,414.092z M114.819,373.116h43.727v10.521
	h-43.727V373.116z"/>
<path d="M206.181,365.684v40.59h0.387c2.751-4.682,6.226-7.819,10.521-9.75c4.296-1.931,8.205-3.137,12.501-3.137
	c5.84,0,10.521,0.772,14.044,2.365c3.523,1.544,6.661,3.91,8.591,6.661c1.931,2.751,3.523,6.226,4.296,10.135
	c0.772,3.91,1.158,8.205,1.158,13.272v48.022H236.2v-44.113c0-6.66-1.158-11.342-3.137-14.431s-5.405-4.729-10.473-4.729
	c-5.84,0-10.136,1.931-12.501,5.067c-2.751,3.523-3.909,9.363-3.909,17.183v41.023h-21.477V365.684H206.181z"/>
<path d="M273.364,407.094c2.365-3.523,5.067-5.84,8.591-8.205c3.523-1.931,7.433-3.523,11.729-4.295
	c4.295-0.772,8.591-1.158,12.886-1.158c3.909,0,7.818,0.386,12.114,0.772c3.909,0.386,7.818,1.544,10.956,3.138
	c3.522,1.544,5.84,3.909,8.204,6.66c1.931,2.751,3.138,6.66,3.138,11.342v41.023c0,3.523,0.386,7.047,0.771,10.136
	c0.387,3.137,1.545,5.84,2.751,7.433H322.64c-0.771-0.772-1.158-2.365-1.544-3.523s-0.386-2.751-0.386-3.909
	c-3.523,3.523-7.433,5.84-12.114,7.433c-4.682,1.544-9.363,1.931-14.045,1.931c-3.909,0-7.046-0.387-10.521-1.545
	c-3.137-0.772-5.84-2.365-8.591-4.295c-2.364-1.931-4.295-4.296-5.84-7.433c-1.158-3.138-1.931-6.227-1.931-10.521
	c0-4.296,0.772-8.205,2.365-10.956c1.545-2.751,3.523-5.067,5.84-7.047c2.365-1.544,5.454-3.137,8.591-3.909
	c3.138-0.771,6.227-1.544,9.749-1.931c3.138-0.386,6.227-0.771,9.363-1.158c3.137-0.386,5.84-0.771,8.205-1.158
	c2.364-0.772,4.295-1.544,5.84-2.751c1.544-1.158,1.93-2.751,1.93-5.067c0-2.365-0.386-4.296-1.158-5.454
	c-0.771-1.158-1.93-2.364-3.137-3.137c-1.158-0.772-2.751-1.158-4.296-1.545c-1.544-0.386-3.522-0.386-5.453-0.386
	c-4.296,0-7.433,0.772-9.749,2.751c-2.365,1.931-3.909,5.067-4.296,8.977h-21.477C269.84,414.478,271.385,410.183,273.364,407.094z
	 M315.932,437.548c-1.158,0.386-2.751,0.772-4.296,1.158c-1.544,0.386-3.137,0.386-5.067,0.772
	c-1.544,0.386-3.523,0.386-5.067,0.771c-1.545,0.387-3.137,0.772-4.682,1.159c-1.544,0.386-3.137,1.158-3.909,1.93
	c-1.158,0.772-1.931,1.931-2.751,3.138c-1.158,1.544-1.158,3.137-1.158,5.067s0.386,3.523,1.158,4.682s1.544,2.365,2.751,3.137
	c1.158,0.772,2.751,1.159,4.295,1.545c1.545,0.386,3.138,0.386,5.068,0.386c4.295,0,7.432-0.771,9.749-1.931
	c2.364-1.544,3.909-3.137,5.067-5.067s1.931-3.909,1.931-5.84c0.386-1.931,0.386-3.523,0.386-4.682v-8.204
	C318.248,436.341,317.09,437.161,315.932,437.548z"/>
<path d="M373.317,395.366v10.956h0.387c2.751-4.682,6.226-7.818,10.521-9.749c4.296-1.931,8.978-3.137,13.272-3.137
	c5.84,0,10.521,0.772,14.045,2.365c3.909,1.545,6.66,3.909,8.591,6.66s3.523,6.227,4.682,10.136
	c0.772,3.909,1.158,8.205,1.158,13.272v48.021h-21.477v-44.112c0-6.66-1.159-11.342-3.138-14.431
	c-1.931-3.138-5.453-5.067-10.956-5.067c-5.84,0-10.135,2.364-12.886,5.84c-2.751,3.522-3.909,9.362-3.909,17.182v41.023h-21.478
	v-78.958C352.226,395.366,373.317,395.366,373.317,395.366z"/>
<path d="M474.091,409.41c-3.523,0-6.227,0.772-8.591,2.365c-2.365,1.544-4.296,3.522-5.84,6.226
	c-1.545,2.365-2.365,5.067-3.138,8.205c-0.772,3.137-0.772,5.84-0.772,8.977c0,2.751,0.387,5.84,0.772,8.591
	c0.772,3.138,1.545,5.454,3.138,7.819c1.544,2.364,3.137,4.295,5.453,5.84c2.365,1.544,5.068,2.364,8.591,2.364
	c5.068,0,8.978-1.544,12.114-4.295c2.751-2.751,4.682-6.66,5.067-11.729h20.705c-1.544,10.521-5.453,18.34-12.114,23.843
	c-6.66,5.453-15.251,8.204-25.772,8.204c-5.84,0-11.342-1.158-16.023-3.137c-5.067-1.931-8.977-4.682-12.5-8.205
	s-6.226-7.818-8.205-12.5c-1.931-5.067-2.751-10.136-2.751-16.023c0-6.226,0.772-11.729,2.751-16.796
	c1.931-5.067,4.296-9.749,7.819-13.658c3.522-3.909,7.818-6.66,12.5-8.977c5.067-1.931,10.521-3.137,16.796-3.137
	c4.682,0,8.977,0.772,13.272,1.931c4.295,1.158,8.204,3.137,11.342,5.454c3.523,2.364,6.226,5.453,8.204,9.362
	c1.931,3.523,3.138,8.205,3.523,13.272h-21.091C488.522,414.092,483.453,409.41,474.091,409.41z"/>
<path d="M543.976,455.115c3.138,3.138,8.205,4.682,14.045,4.682c4.296,0,8.205-1.158,11.342-3.137
	c3.137-2.365,5.067-4.682,5.84-7.047h18.727c-3.138,9.363-7.819,16.023-14.045,20.319c-6.226,3.909-13.658,6.226-22.636,6.226
	c-6.226,0-11.728-1.158-16.796-3.137c-5.067-1.931-8.977-4.682-12.5-8.591c-3.523-3.523-6.226-7.819-7.818-12.887
	c-1.931-5.067-2.751-10.521-2.751-16.796c0-5.84,0.772-11.342,2.751-16.409c1.931-5.067,4.682-9.363,8.205-13.272
	c3.522-3.523,7.818-6.66,12.5-8.591c5.067-1.931,10.521-3.137,16.409-3.137c6.66,0,12.5,1.158,17.182,3.91
	c5.068,2.751,8.978,5.84,12.114,10.521c3.138,4.295,5.454,9.362,7.047,14.816c1.544,5.454,1.931,11.342,1.544,17.568h-56.613
	C538.523,446.139,540.839,451.979,543.976,455.115L543.976,455.115z M568.977,414.092c-2.751-2.751-7.047-4.296-12.114-4.296
	c-3.523,0-6.227,0.772-8.591,1.931c-2.365,1.158-4.296,2.751-5.454,4.296c-1.158,1.544-2.365,3.523-2.751,5.453
	c-0.386,1.931-0.772,3.523-0.772,5.068h35.136C573.272,420.752,571.293,416.843,568.977,414.092L568.977,414.092z"/>
</svg>
