<?xml version="1.0" encoding="utf-8"?>
<!-- Generator: Adobe Illustrator 16.0.0, SVG Export Plug-In . SVG Version: 6.00 Build 0)  -->
<!DOCTYPE svg PUBLIC "-//W3C//DTD SVG 1.1//EN" "http://www.w3.org/Graphics/SVG/1.1/DTD/svg11.dtd">
<svg version="1.1" id="layer" xmlns="http://www.w3.org/2000/svg" xmlns:xlink="http://www.w3.org/1999/xlink" x="0px" y="0px"
	 width="655.5px" height="149px" viewBox="12 341 655.5 149" enable-background="new 12 341 655.5 149" xml:space="preserve">
<path fill="#24292E" d="M381.824,459.348h-0.239c0.12,0,0.12,0.121,0.239,0.121h0.123L381.824,459.348z M381.824,459.469
	c-0.969,0-3.513,0.484-6.181,0.484c-8.362,0-11.271-3.877-11.271-8.971v-33.689h17.091c0.97,0,1.694-0.85,1.694-2.063V396.93
	c0-0.97-0.849-1.818-1.694-1.818h-17.091v-22.784c0-0.849-0.605-1.333-1.575-1.333h-23.271c-0.969,0-1.454,0.605-1.454,1.333v23.391
	c0,0-11.757,2.909-12.484,3.029c-0.847,0.243-1.331,0.969-1.331,1.818v14.665c0,1.212,0.848,2.063,1.816,2.063h11.876v35.388
	c0,26.3,18.304,28.968,30.785,28.968c5.697,0,12.605-1.816,13.697-2.425c0.604-0.243,0.969-0.971,0.969-1.696v-16.119
	C383.403,460.439,382.795,459.713,381.824,459.469L381.824,459.469z M637.072,435.834c0-19.511-7.878-22.057-16.118-21.208
	c-6.423,0.364-11.635,3.637-11.635,3.637v37.936c0,0,5.212,3.635,13.089,3.877C633.439,460.316,637.072,456.318,637.072,435.834
	L637.072,435.834z M663.25,434.139c0,36.965-11.997,47.511-32.845,47.511c-17.694,0-27.147-8.97-27.147-8.97
	s-0.363,4.972-0.971,5.574c-0.362,0.607-0.847,0.851-1.573,0.851h-15.879c-1.091,0-2.061-0.851-2.061-1.818l0.242-119.623
	c0-0.97,0.849-1.817,1.817-1.817h22.904c0.972,0,1.82,0.848,1.82,1.817v40.601c0,0,8.848-5.697,21.814-5.697l-0.119-0.241
	C644.103,392.325,663.25,397.173,663.25,434.139L663.25,434.139z M569.323,395.232h-22.664c-1.212,0-1.817,0.85-1.817,2.062v58.54
	c0,0-5.938,4.119-14.061,4.119c-7.999,0-10.422-3.635-10.422-11.756v-51.146c0-0.97-0.85-1.819-1.819-1.819h-23.026
	c-0.97,0-1.818,0.85-1.818,1.819v55.146c0,23.633,13.212,29.571,31.392,29.571c15.029,0,27.148-8.241,27.148-8.241
	s0.604,4.241,0.849,4.848c0.242,0.486,0.969,0.971,1.694,0.971h14.426c1.213,0,1.816-0.85,1.816-1.817l0.242-80.476
	C571.383,396.083,570.413,395.232,569.323,395.232L569.323,395.232z M314.076,395.113H291.17c-0.969,0-1.819,0.97-1.819,2.182
	v79.022c0,2.18,1.455,2.907,3.273,2.907h20.724c2.183,0,2.668-0.971,2.668-2.907v-79.386
	C315.895,395.961,315.047,395.113,314.076,395.113L314.076,395.113z M302.684,358.632c-8.242,0-14.907,6.544-14.907,14.907
	c0,8.242,6.544,14.909,14.907,14.909c8.121,0,14.666-6.546,14.666-14.909C317.35,365.297,310.805,358.632,302.684,358.632
	L302.684,358.632z M480.362,355.966h-22.785c-0.97,0-1.816,0.849-1.816,1.817v43.996h-35.634v-43.996
	c0-0.969-0.85-1.817-1.817-1.817H395.4c-0.968,0-1.815,0.849-1.815,1.817v119.624c0,0.969,0.97,1.817,1.815,1.817h22.908
	c0.969,0,1.816-0.85,1.816-1.817V426.26h35.635l-0.242,51.146c0,0.969,0.849,1.817,1.816,1.817h22.907
	c0.971,0,1.817-0.85,1.817-1.817V357.783C482.181,356.814,481.33,355.966,480.362,355.966L480.362,355.966z M277.112,408.929v61.813
	c0,0.36-0.123,1.211-0.606,1.332c0,0-13.452,9.574-35.631,9.574c-26.786,0-58.661-8.363-58.661-63.752
	c0-55.388,27.754-66.78,54.902-66.658c23.514,0,32.967,5.332,34.421,6.302c0.361,0.606,0.604,0.97,0.604,1.455l-4.362,19.271
	c0,0.971-0.97,2.182-2.182,1.817c-3.878-1.211-9.695-3.515-23.392-3.515c-15.877,0-32.846,4.484-32.846,40.238
	c0,35.632,16.119,39.874,27.753,39.874c9.939,0,13.454-1.213,13.454-1.213v-24.725H234.69c-1.21,0-2.06-0.849-2.06-1.818V409.05
	c0-0.97,0.85-1.817,2.06-1.817h40.36C276.263,407.111,277.112,407.96,277.112,408.929L277.112,408.929z"/>
<path fill="#24292E" d="M88.927,348.27c-38.438,0-69.571,31.135-69.571,69.571c0,30.77,19.903,56.789,47.567,66.011
	c3.47,0.549,4.839-1.461,4.839-3.286c0-1.645-0.091-7.121-0.091-12.966c-17.438,3.195-22.004-4.291-23.373-8.126
	c-0.821-2.009-4.2-8.217-7.121-9.859c-2.466-1.278-5.935-4.564-0.092-4.656c5.479-0.091,9.403,5.021,10.683,7.121
	c6.3,10.5,16.251,7.578,20.27,5.752c0.639-4.474,2.465-7.577,4.474-9.313c-15.43-1.733-31.682-7.761-31.682-34.328
	c0-7.578,2.738-13.879,7.122-18.717c-0.73-1.734-3.104-8.855,0.729-18.442c0,0,5.843-1.826,19.173,7.122
	c5.569-1.553,11.504-2.375,17.348-2.375c5.935,0,11.777,0.822,17.348,2.375c13.33-9.039,19.082-7.122,19.082-7.122
	c3.834,9.586,1.369,16.708,0.729,18.442c4.475,4.838,7.121,11.047,7.121,18.717c0,26.659-16.252,32.595-31.771,34.328
	c2.556,2.191,4.747,6.301,4.747,12.874c0,9.313-0.091,16.8-0.091,19.081c0,1.826,1.277,4.019,4.746,3.287
	c28.305-9.587,47.387-36.154,47.387-66.011C158.498,379.402,127.365,348.27,88.927,348.27L88.927,348.27z"/>
</svg>
