<?xml version="1.0" encoding="utf-8"?>
<!-- Generator: Adobe Illustrator 16.0.0, SVG Export Plug-In . SVG Version: 6.00 Build 0)  -->
<!DOCTYPE svg PUBLIC "-//W3C//DTD SVG 1.1//EN" "http://www.w3.org/Graphics/SVG/1.1/DTD/svg11.dtd">
<svg version="1.1" id="Layer_1" xmlns="http://www.w3.org/2000/svg" xmlns:xlink="http://www.w3.org/1999/xlink" x="0px" y="0px"
	 width="656.646px" height="144.5px" viewBox="-88.354 -0.5 656.646 144.5" enable-background="new -88.354 -0.5 656.646 144.5"
	 xml:space="preserve">
<g>
	<g>
		<g>
			<g>
				<polygon fill="#231F20" points="-83.354,9.741 -56.11,9.741 -56.11,108.967 -5.673,108.967 -5.673,134.104 -83.354,134.104 				
					"/>
				<g>
					<path fill="#231F20" d="M6.36,49.793h26.187v84.277H6.36V49.793z M19.454,7.898c8.385,0,15.19,6.805,15.19,15.183
						c0,8.393-6.806,15.178-15.19,15.178c-8.375,0-15.18-6.786-15.18-15.178C4.273,14.704,11.077,7.898,19.454,7.898"/>
				</g>
				<polygon fill="#231F20" points="142.001,9.733 168.177,9.733 168.177,84.06 197.828,49.754 229.919,49.754 195.577,88.775 
					229.201,134.104 196.298,134.104 168.517,92.443 168.177,92.443 168.177,134.104 142.001,134.104 				"/>
				<path fill="#231F20" d="M47.028,49.804h25.135v11.521h0.351c3.488-6.633,12.043-13.613,24.785-13.613
					c26.536,0,31.422,17.455,31.422,40.142v46.217h-26.185V93.095c0-9.779-0.179-22.342-13.622-22.342
					c-13.612,0-15.7,10.65-15.7,21.643v41.675H47.029L47.028,49.804L47.028,49.804z"/>
				<path fill="#231F20" d="M285.035,82.134c0.172-8.728-6.636-16.061-16.071-16.061c-11.514,0-17.803,7.854-18.493,16.061H285.035z
					 M307.198,119.479c-8.381,10.65-22.162,16.767-35.785,16.767c-26.179,0-47.126-17.466-47.126-44.521
					c0-27.052,20.949-44.505,47.126-44.505c24.457,0,39.804,17.452,39.804,44.505v8.205h-60.744
					c2.078,9.951,9.595,16.409,19.723,16.409c8.555,0,14.311-4.366,18.676-10.3L307.198,119.479z"/>
				<path fill="#231F20" d="M365.748,70.173c-13.083,0-20.935,8.735-20.935,21.465c0,12.754,7.852,21.472,20.935,21.472
					c13.102,0,20.958-8.716,20.958-21.472C386.706,78.905,378.85,70.173,365.748,70.173 M410.802,134.058h-24.095v-11.175h-0.338
					c-4.028,6.107-14.144,13.269-26.017,13.269c-25.145,0-41.725-18.146-41.725-43.812c0-23.565,14.662-45.21,38.749-45.21
					c10.834,0,20.955,2.964,26.892,11.169h0.34V9.733h26.194L410.802,134.058L410.802,134.058z"/>
			</g>
			<path fill="#0077B5" d="M557.632,0H434.915c-5.863,0-10.629,4.648-10.629,10.376v123.233c0,5.734,4.766,10.391,10.629,10.391
				h122.717c5.874,0,10.658-4.655,10.658-10.391V10.376C568.291,4.648,563.506,0,557.632,0z"/>
			<path fill="#FFFFFF" d="M445.638,53.985h21.358v68.722h-21.358V53.985z M456.322,19.825c6.828,0,12.377,5.549,12.377,12.38
				c0,6.837-5.549,12.386-12.377,12.386c-6.846,0-12.387-5.549-12.387-12.386C443.936,25.375,449.477,19.825,456.322,19.825"/>
			<path fill="#FFFFFF" d="M480.394,53.985h20.485v9.39h0.285c2.853-5.403,9.818-11.099,20.209-11.099
				c21.629,0,25.621,14.234,25.621,32.736v37.694h-21.344v-33.42c0-7.97-0.146-18.22-11.099-18.22
				c-11.113,0-12.819,8.681-12.819,17.644v33.996h-21.34L480.394,53.985L480.394,53.985z"/>
		</g>
	</g>
</g>
</svg>
