<?xml version="1.0" standalone="no"?>
<!DOCTYPE svg PUBLIC "-//W3C//DTD SVG 20010904//EN"
 "http://www.w3.org/TR/2001/REC-SVG-20010904/DTD/svg10.dtd">
<svg version="1.0" xmlns="http://www.w3.org/2000/svg"
 width="255.000000pt" height="59.000000pt" viewBox="0 0 255.000000 59.000000"
 preserveAspectRatio="xMidYMid meet">

<g transform="translate(0.000000,59.000000) scale(0.100000,-0.100000)"
fill="#000000" stroke="none">
<path d="M155 495 c-132 -47 -163 -227 -55 -319 119 -100 302 -13 302 144 0
84 -49 151 -131 178 -43 15 -66 14 -116 -3z"/>
<path d="M1615 493 c-44 -14 -47 -17 -27 -24 16 -6 22 -16 22 -37 0 -26 -2
-28 -34 -24 -94 11 -161 -100 -121 -204 9 -24 25 -49 35 -54 28 -15 73 -12 98
6 20 14 22 14 22 0 0 -13 12 -16 52 -16 49 0 50 1 35 18 -14 16 -17 44 -17
185 0 92 -3 167 -7 166 -5 -1 -30 -8 -58 -16z m-7 -211 c-3 -84 -5 -97 -21
-100 -46 -9 -76 72 -57 153 11 48 35 69 62 54 17 -9 18 -20 16 -107z"/>
<path d="M1748 499 c-38 -21 -11 -74 34 -67 26 3 37 41 18 64 -14 16 -28 17
-52 3z"/>
<path d="M492 490 c-61 -25 -86 -188 -44 -283 51 -115 148 -62 159 88 7 76
-11 140 -47 177 -31 30 -34 31 -68 18z"/>
<path d="M800 490 c0 -6 5 -10 10 -10 15 0 13 -313 -2 -328 -9 -9 -5 -12 21
-12 27 0 31 3 22 14 -8 9 -11 57 -9 146 l3 132 60 -141 c32 -77 62 -141 65
-141 4 0 33 62 65 137 32 76 61 141 64 145 3 4 5 -54 4 -129 -2 -84 -7 -141
-14 -149 -10 -12 -1 -14 52 -14 49 0 60 3 51 12 -15 15 -17 328 -2 328 6 0 10
5 10 10 0 10 -47 12 -81 3 -10 -2 -36 -48 -64 -113 -26 -61 -49 -110 -50 -110
-1 0 -24 49 -50 110 -32 74 -53 110 -64 111 -9 0 -33 2 -53 4 -21 2 -38 0 -38
-5z"/>
<path d="M650 465 c-22 -26 -22 -264 0 -290 14 -16 15 -16 27 11 16 38 16 230
0 268 -12 27 -13 27 -27 11z"/>
<path d="M1264 391 c-41 -25 -58 -68 -52 -136 4 -44 11 -62 33 -85 53 -56 148
-33 174 41 l10 30 -31 -26 c-23 -20 -38 -25 -57 -20 -52 12 -97 93 -53 96 9 1
28 2 42 4 14 1 42 3 64 3 36 2 38 3 32 30 -4 15 -20 39 -37 55 -35 32 -80 35
-125 8z m84 -13 c7 -7 12 -25 12 -40 0 -27 -2 -28 -46 -28 -45 0 -46 0 -39 27
12 50 45 69 73 41z"/>
<path d="M1755 393 c-40 -12 -46 -17 -32 -24 14 -9 17 -27 17 -119 l0 -110 52
0 c48 0 50 1 35 18 -13 14 -17 44 -19 133 l-3 116 -50 -14z"/>
<path d="M1885 392 c-27 -8 -44 -17 -37 -19 8 -3 12 -29 12 -83 0 -80 11 -128
33 -142 20 -13 75 -9 91 7 19 19 26 19 26 0 0 -11 12 -15 52 -15 49 0 50 1 35
18 -14 15 -17 41 -17 135 l0 116 -32 -10 c-18 -6 -39 -13 -47 -15 -10 -3 -11
-7 -2 -18 8 -9 11 -45 9 -98 l-3 -83 -30 0 -30 0 -5 111 -5 111 -50 -15z"/>
<path d="M2170 398 c-64 -16 -67 -18 -47 -29 15 -9 17 -26 17 -119 l0 -110 47
0 c37 0 44 3 35 12 -19 19 -16 193 4 212 8 9 17 16 19 16 2 0 11 -7 19 -16 13
-12 16 -38 16 -120 l0 -104 45 0 c42 0 45 2 35 19 -5 11 -10 58 -10 105 0 95
14 125 51 106 17 -10 19 -22 19 -120 l0 -110 52 0 c49 0 50 1 35 18 -13 15
-17 39 -17 115 0 84 -3 100 -20 117 -11 11 -29 20 -41 20 -22 0 -60 -18 -70
-33 -4 -5 -16 0 -28 12 -24 24 -73 28 -91 6 -15 -19 -28 -19 -32 -2 -2 10 -12
11 -38 5z"/>
</g>
</svg>
