<?xml version="1.0" standalone="no"?>
<!DOCTYPE svg PUBLIC "-//W3C//DTD SVG 20010904//EN"
 "http://www.w3.org/TR/2001/REC-SVG-20010904/DTD/svg10.dtd">
<svg version="1.0" xmlns="http://www.w3.org/2000/svg"
 width="100.000000pt" height="56.000000pt" viewBox="0 0 100.000000 56.000000"
 preserveAspectRatio="xMidYMid meet">

<g transform="translate(0.000000,56.000000) scale(0.100000,-0.100000)"
fill="#000000" stroke="none">
<path d="M311 406 c61 -79 110 -148 110 -153 -1 -4 -41 -53 -89 -107 -126
-144 -122 -136 -70 -136 43 0 46 2 122 90 43 50 81 90 86 90 4 0 38 -40 76
-90 l69 -90 92 0 93 0 -116 155 c-64 85 -113 159 -109 165 3 5 47 56 96 113
l90 102 -43 3 c-47 4 -36 12 -144 -112 l-51 -58 -64 83 -65 84 -97 3 -97 3
111 -145z m214 -119 c88 -116 161 -215 163 -219 2 -4 -7 -8 -20 -8 -19 0 -52
37 -163 182 -77 100 -153 199 -168 220 l-29 38 29 0 c25 -1 47 -26 188 -213z"/>
</g>
</svg>
